<?xml version="1.0" encoding="UTF-8" standalone="no"?>
<!DOCTYPE svg PUBLIC "-//W3C//DTD SVG 1.1//EN"
 "http://www.w3.org/Graphics/SVG/1.1/DTD/svg11.dtd">
<!-- Generated by graphviz version 2.38.0 (20140413.2041)
 -->
<!-- Title: G Pages: 1 -->
<svg width="360pt" height="960pt"
 viewBox="0.00 0.00 359.79 960.00" xmlns="http://www.w3.org/2000/svg" xmlns:xlink="http://www.w3.org/1999/xlink">
<g id="graph0" class="graph" transform="scale(1 1) rotate(0) translate(4 956)">
<title>G</title>
<polygon fill="white" stroke="none" points="-4,4 -4,-956 355.79,-956 355.79,4 -4,4"/>
<g id="clust1" class="cluster"><title>cluster_Global</title>
<path fill="none" stroke="gray" d="M187.79,-8C187.79,-8 331.79,-8 331.79,-8 337.79,-8 343.79,-14 343.79,-20 343.79,-20 343.79,-932 343.79,-932 343.79,-938 337.79,-944 331.79,-944 331.79,-944 187.79,-944 187.79,-944 181.79,-944 175.79,-938 175.79,-932 175.79,-932 175.79,-20 175.79,-20 175.79,-14 181.79,-8 187.79,-8"/>
<text text-anchor="middle" x="259.79" y="-931.2" font-family="Times New Roman,serif" font-size="11.00" fill="gray">Global</text>
</g>
<!-- \\Articles -->
<g id="node1" class="node"><title>\\Articles</title>
<polygon fill="none" stroke="black" points="295.29,-916 224.29,-916 224.29,-880 295.29,-880 295.29,-916"/>
<text text-anchor="middle" x="259.79" y="-895.2" font-family="Courier,monospace" font-size="11.00">Articles</text>
</g>
<!-- \\MY_Model -->
<g id="node18" class="node"><title>\\MY_Model</title>
<ellipse fill="none" stroke="black" cx="55.895" cy="-466" rx="55.7903" ry="18"/>
<text text-anchor="middle" x="55.895" y="-462.3" font-family="Times New Roman,serif" font-size="14.00" fill="gray">\MY_Model</text>
</g>
<!-- \\Articles&#45;&gt;\\MY_Model -->
<g id="edge1" class="edge"><title>\\Articles&#45;&gt;\\MY_Model</title>
<path fill="none" stroke="black" d="M224.132,-894.279C207.489,-890.79 188.46,-884.043 175.79,-871 70.8838,-763.011 57.7839,-567.5 56.7007,-494.503"/>
<polygon fill="none" stroke="black" points="60.1987,-494.229 56.6181,-484.258 53.1989,-494.286 60.1987,-494.229"/>
</g>
<!-- \\Categories -->
<g id="node2" class="node"><title>\\Categories</title>
<polygon fill="none" stroke="black" points="301.79,-862 217.79,-862 217.79,-826 301.79,-826 301.79,-862"/>
<text text-anchor="middle" x="259.79" y="-841.2" font-family="Courier,monospace" font-size="11.00">Categories</text>
</g>
<!-- \\Categories&#45;&gt;\\MY_Model -->
<g id="edge2" class="edge"><title>\\Categories&#45;&gt;\\MY_Model</title>
<path fill="none" stroke="black" d="M217.611,-838.462C202.801,-834.609 187.001,-828.076 175.79,-817 83.4439,-725.764 62.8077,-560.307 58.2087,-494.299"/>
<polygon fill="none" stroke="black" points="61.6965,-493.992 57.5801,-484.23 54.7101,-494.429 61.6965,-493.992"/>
</g>
<!-- \\Characteristics -->
<g id="node3" class="node"><title>\\Characteristics</title>
<polygon fill="none" stroke="black" points="318.79,-808 200.79,-808 200.79,-772 318.79,-772 318.79,-808"/>
<text text-anchor="middle" x="259.79" y="-787.2" font-family="Courier,monospace" font-size="11.00">Characteristics</text>
</g>
<!-- \\Characteristics&#45;&gt;\\MY_Model -->
<g id="edge3" class="edge"><title>\\Characteristics&#45;&gt;\\MY_Model</title>
<path fill="none" stroke="black" d="M200.708,-778.401C191.599,-774.627 182.871,-769.626 175.79,-763 96.0008,-688.331 68.6275,-553.001 60.231,-494.361"/>
<polygon fill="none" stroke="black" points="63.684,-493.777 58.8757,-484.336 56.7471,-494.715 63.684,-493.777"/>
</g>
<!-- \\Characteristics_type -->
<g id="node4" class="node"><title>\\Characteristics_type</title>
<polygon fill="none" stroke="black" points="335.79,-754 183.79,-754 183.79,-718 335.79,-718 335.79,-754"/>
<text text-anchor="middle" x="259.79" y="-733.2" font-family="Courier,monospace" font-size="11.00">Characteristics_type</text>
</g>
<!-- \\Characteristics_type&#45;&gt;\\MY_Model -->
<g id="edge4" class="edge"><title>\\Characteristics_type&#45;&gt;\\MY_Model</title>
<path fill="none" stroke="black" d="M188.569,-717.924C184.001,-715.335 179.68,-712.378 175.79,-709 108.255,-650.347 75.4014,-544.471 63.0048,-494.098"/>
<polygon fill="none" stroke="black" points="66.3775,-493.152 60.6649,-484.229 59.5663,-494.766 66.3775,-493.152"/>
</g>
<!-- \\Dynamic_menus -->
<g id="node5" class="node"><title>\\Dynamic_menus</title>
<polygon fill="none" stroke="black" points="311.79,-700 207.79,-700 207.79,-664 311.79,-664 311.79,-700"/>
<text text-anchor="middle" x="259.79" y="-679.2" font-family="Courier,monospace" font-size="11.00">Dynamic_menus</text>
</g>
<!-- \\Dynamic_menus&#45;&gt;\\MY_Model -->
<g id="edge5" class="edge"><title>\\Dynamic_menus&#45;&gt;\\MY_Model</title>
<path fill="none" stroke="black" d="M207.733,-671.528C196.461,-667.608 185.114,-662.264 175.79,-655 120.138,-611.639 83.524,-534.41 67.0059,-493.381"/>
<polygon fill="none" stroke="black" points="70.2402,-492.042 63.3305,-484.01 63.7235,-494.598 70.2402,-492.042"/>
</g>
<!-- \\Emails -->
<g id="node6" class="node"><title>\\Emails</title>
<polygon fill="none" stroke="black" points="288.29,-646 231.29,-646 231.29,-610 288.29,-610 288.29,-646"/>
<text text-anchor="middle" x="259.79" y="-625.2" font-family="Courier,monospace" font-size="11.00">Emails</text>
</g>
<!-- \\Emails&#45;&gt;\\MY_Model -->
<g id="edge6" class="edge"><title>\\Emails&#45;&gt;\\MY_Model</title>
<path fill="none" stroke="black" d="M230.998,-622.867C214.048,-618.824 192.503,-611.989 175.79,-601 131.613,-571.954 93.8703,-522.288 73.371,-491.975"/>
<polygon fill="none" stroke="black" points="76.2606,-490 67.8149,-483.603 70.428,-493.87 76.2606,-490"/>
</g>
<!-- \\Images -->
<g id="node7" class="node"><title>\\Images</title>
<polygon fill="none" stroke="black" points="288.29,-592 231.29,-592 231.29,-556 288.29,-556 288.29,-592"/>
<text text-anchor="middle" x="259.79" y="-571.2" font-family="Courier,monospace" font-size="11.00">Images</text>
</g>
<!-- \\Images&#45;&gt;\\MY_Model -->
<g id="edge7" class="edge"><title>\\Images&#45;&gt;\\MY_Model</title>
<path fill="none" stroke="black" d="M231.114,-567.124C214.601,-562.506 193.474,-555.679 175.79,-547 143.041,-530.926 108.958,-506.826 85.7238,-489.091"/>
<polygon fill="none" stroke="black" points="87.73,-486.218 77.6774,-482.872 83.4491,-491.757 87.73,-486.218"/>
</g>
<!-- \\Mailouts -->
<g id="node8" class="node"><title>\\Mailouts</title>
<polygon fill="none" stroke="black" points="295.29,-538 224.29,-538 224.29,-502 295.29,-502 295.29,-538"/>
<text text-anchor="middle" x="259.79" y="-517.2" font-family="Courier,monospace" font-size="11.00">Mailouts</text>
</g>
<!-- \\Mailouts&#45;&gt;\\MY_Model -->
<g id="edge8" class="edge"><title>\\Mailouts&#45;&gt;\\MY_Model</title>
<path fill="none" stroke="black" d="M224.083,-510.717C192.548,-502.283 145.573,-489.718 109.438,-480.053"/>
<polygon fill="none" stroke="black" points="110.12,-476.613 99.5556,-477.41 108.312,-483.375 110.12,-476.613"/>
</g>
<!-- \\Menus_items -->
<g id="node9" class="node"><title>\\Menus_items</title>
<polygon fill="none" stroke="black" points="305.29,-484 214.29,-484 214.29,-448 305.29,-448 305.29,-484"/>
<text text-anchor="middle" x="259.79" y="-463.2" font-family="Courier,monospace" font-size="11.00">Menus_items</text>
</g>
<!-- \\Menus_items&#45;&gt;\\MY_Model -->
<g id="edge9" class="edge"><title>\\Menus_items&#45;&gt;\\MY_Model</title>
<path fill="none" stroke="black" d="M213.983,-466C187.068,-466 152.346,-466 122.393,-466"/>
<polygon fill="none" stroke="black" points="122.018,-462.5 112.018,-466 122.018,-469.5 122.018,-462.5"/>
</g>
<!-- \\Orders -->
<g id="node10" class="node"><title>\\Orders</title>
<polygon fill="none" stroke="black" points="288.29,-430 231.29,-430 231.29,-394 288.29,-394 288.29,-430"/>
<text text-anchor="middle" x="259.79" y="-409.2" font-family="Courier,monospace" font-size="11.00">Orders</text>
</g>
<!-- \\Orders&#45;&gt;\\MY_Model -->
<g id="edge10" class="edge"><title>\\Orders&#45;&gt;\\MY_Model</title>
<path fill="none" stroke="black" d="M231.141,-419.395C199.913,-427.748 148.38,-441.531 109.438,-451.946"/>
<polygon fill="none" stroke="black" points="108.08,-448.687 99.3236,-454.652 109.888,-455.449 108.08,-448.687"/>
</g>
<!-- \\Orders_products -->
<g id="node11" class="node"><title>\\Orders_products</title>
<polygon fill="none" stroke="black" points="318.79,-376 200.79,-376 200.79,-340 318.79,-340 318.79,-376"/>
<text text-anchor="middle" x="259.79" y="-355.2" font-family="Courier,monospace" font-size="11.00">Orders_products</text>
</g>
<!-- \\Orders_products&#45;&gt;\\MY_Model -->
<g id="edge11" class="edge"><title>\\Orders_products&#45;&gt;\\MY_Model</title>
<path fill="none" stroke="black" d="M200.358,-374.682C191.959,-377.745 183.544,-381.194 175.79,-385 143.041,-401.074 108.958,-425.174 85.7238,-442.909"/>
<polygon fill="none" stroke="black" points="83.4491,-440.243 77.6774,-449.128 87.73,-445.782 83.4491,-440.243"/>
</g>
<!-- \\Products -->
<g id="node12" class="node"><title>\\Products</title>
<polygon fill="none" stroke="black" points="295.29,-322 224.29,-322 224.29,-286 295.29,-286 295.29,-322"/>
<text text-anchor="middle" x="259.79" y="-301.2" font-family="Courier,monospace" font-size="11.00">Products</text>
</g>
<!-- \\Products&#45;&gt;\\MY_Model -->
<g id="edge12" class="edge"><title>\\Products&#45;&gt;\\MY_Model</title>
<path fill="none" stroke="black" d="M224.241,-310.837C208.579,-315.006 190.351,-321.427 175.79,-331 131.613,-360.046 93.8703,-409.712 73.371,-440.025"/>
<polygon fill="none" stroke="black" points="70.428,-438.13 67.8149,-448.397 76.2606,-442 70.428,-438.13"/>
</g>
<!-- \\Recommended_products -->
<g id="node13" class="node"><title>\\Recommended_products</title>
<polygon fill="none" stroke="black" points="335.79,-268 183.79,-268 183.79,-232 335.79,-232 335.79,-268"/>
<text text-anchor="middle" x="259.79" y="-247.2" font-family="Courier,monospace" font-size="11.00">Recommended_products</text>
</g>
<!-- \\Recommended_products&#45;&gt;\\MY_Model -->
<g id="edge13" class="edge"><title>\\Recommended_products&#45;&gt;\\MY_Model</title>
<path fill="none" stroke="black" d="M189.786,-268.12C184.827,-270.704 180.093,-273.647 175.79,-277 120.138,-320.361 83.524,-397.59 67.0059,-438.619"/>
<polygon fill="none" stroke="black" points="63.7235,-437.402 63.3305,-447.99 70.2402,-439.958 63.7235,-437.402"/>
</g>
<!-- \\Settings -->
<g id="node14" class="node"><title>\\Settings</title>
<polygon fill="none" stroke="black" points="295.29,-214 224.29,-214 224.29,-178 295.29,-178 295.29,-214"/>
<text text-anchor="middle" x="259.79" y="-193.2" font-family="Courier,monospace" font-size="11.00">Settings</text>
</g>
<!-- \\Settings&#45;&gt;\\MY_Model -->
<g id="edge14" class="edge"><title>\\Settings&#45;&gt;\\MY_Model</title>
<path fill="none" stroke="black" d="M224.205,-200.858C207.979,-204.623 189.29,-211.275 175.79,-223 108.255,-281.653 75.4014,-387.529 63.0048,-437.902"/>
<polygon fill="none" stroke="black" points="59.5663,-437.234 60.6649,-447.771 66.3775,-438.848 59.5663,-437.234"/>
</g>
<!-- \\Users -->
<g id="node15" class="node"><title>\\Users</title>
<polygon fill="none" stroke="black" points="286.79,-160 232.79,-160 232.79,-124 286.79,-124 286.79,-160"/>
<text text-anchor="middle" x="259.79" y="-139.2" font-family="Courier,monospace" font-size="11.00">Users</text>
</g>
<!-- \\Users&#45;&gt;\\MY_Model -->
<g id="edge15" class="edge"><title>\\Users&#45;&gt;\\MY_Model</title>
<path fill="none" stroke="black" d="M232.65,-144.678C214.65,-147.789 191.28,-154.505 175.79,-169 96.0008,-243.669 68.6275,-378.999 60.231,-437.639"/>
<polygon fill="none" stroke="black" points="56.7471,-437.285 58.8757,-447.664 63.684,-438.223 56.7471,-437.285"/>
</g>
<!-- \\Users2users_groups -->
<g id="node16" class="node"><title>\\Users2users_groups</title>
<polygon fill="none" stroke="black" points="328.79,-106 190.79,-106 190.79,-70 328.79,-70 328.79,-106"/>
<text text-anchor="middle" x="259.79" y="-85.2" font-family="Courier,monospace" font-size="11.00">Users2users_groups</text>
</g>
<!-- \\Users2users_groups&#45;&gt;\\MY_Model -->
<g id="edge16" class="edge"><title>\\Users2users_groups&#45;&gt;\\MY_Model</title>
<path fill="none" stroke="black" d="M190.445,-104.13C185.093,-107.152 180.102,-110.74 175.79,-115 83.4439,-206.236 62.8077,-371.693 58.2087,-437.701"/>
<polygon fill="none" stroke="black" points="54.7101,-437.571 57.5801,-447.77 61.6965,-438.008 54.7101,-437.571"/>
</g>
<!-- \\Users_groups -->
<g id="node17" class="node"><title>\\Users_groups</title>
<polygon fill="none" stroke="black" points="308.79,-52 210.79,-52 210.79,-16 308.79,-16 308.79,-52"/>
<text text-anchor="middle" x="259.79" y="-31.2" font-family="Courier,monospace" font-size="11.00">Users_groups</text>
</g>
<!-- \\Users_groups&#45;&gt;\\MY_Model -->
<g id="edge17" class="edge"><title>\\Users_groups&#45;&gt;\\MY_Model</title>
<path fill="none" stroke="black" d="M210.475,-41.2648C197.793,-45.2561 185.082,-51.4355 175.79,-61 70.8838,-168.989 57.7839,-364.5 56.7007,-437.497"/>
<polygon fill="none" stroke="black" points="53.1989,-437.714 56.6181,-447.742 60.1987,-437.771 53.1989,-437.714"/>
</g>
</g>
</svg>
