<?xml version="1.0" encoding="UTF-8" standalone="no"?>
<!DOCTYPE svg PUBLIC "-//W3C//DTD SVG 1.1//EN"
 "http://www.w3.org/Graphics/SVG/1.1/DTD/svg11.dtd">
<!-- Generated by graphviz version 2.38.0 (20140413.2041)
 -->
<!-- Title: G Pages: 1 -->
<svg width="373pt" height="1068pt"
 viewBox="0.00 0.00 372.59 1068.00" xmlns="http://www.w3.org/2000/svg" xmlns:xlink="http://www.w3.org/1999/xlink">
<g id="graph0" class="graph" transform="scale(1 1) rotate(0) translate(4 1064)">
<title>G</title>
<polygon fill="white" stroke="none" points="-4,4 -4,-1064 368.586,-1064 368.586,4 -4,4"/>
<g id="clust1" class="cluster"><title>cluster_Global</title>
<path fill="none" stroke="gray" d="M234.586,-8C234.586,-8 344.586,-8 344.586,-8 350.586,-8 356.586,-14 356.586,-20 356.586,-20 356.586,-1040 356.586,-1040 356.586,-1046 350.586,-1052 344.586,-1052 344.586,-1052 234.586,-1052 234.586,-1052 228.586,-1052 222.586,-1046 222.586,-1040 222.586,-1040 222.586,-20 222.586,-20 222.586,-14 228.586,-8 234.586,-8"/>
<text text-anchor="middle" x="289.586" y="-1039.2" font-family="Times New Roman,serif" font-size="11.00" fill="gray">Global</text>
</g>
<!-- \\Account -->
<g id="node1" class="node"><title>\\Account</title>
<polygon fill="none" stroke="black" points="321.586,-592 257.586,-592 257.586,-556 321.586,-556 321.586,-592"/>
<text text-anchor="middle" x="289.586" y="-571.2" font-family="Courier,monospace" font-size="11.00">Account</text>
</g>
<!-- \\Client_Controller -->
<g id="node20" class="node"><title>\\Client_Controller</title>
<ellipse fill="none" stroke="black" cx="79.293" cy="-736" rx="75.2868" ry="18"/>
<text text-anchor="middle" x="79.293" y="-732.3" font-family="Times New Roman,serif" font-size="14.00" fill="gray">\Client_Controller</text>
</g>
<!-- \\Account&#45;&gt;\\Client_Controller -->
<g id="edge1" class="edge"><title>\\Account&#45;&gt;\\Client_Controller</title>
<path fill="none" stroke="black" d="M257.517,-583.989C246.072,-588.357 233.296,-594.079 222.586,-601 174.483,-632.085 128.168,-680.595 102.055,-710.217"/>
<polygon fill="none" stroke="black" points="99.1689,-708.201 95.2403,-718.041 104.447,-712.799 99.1689,-708.201"/>
</g>
<!-- \\Admin_ajax -->
<g id="node2" class="node"><title>\\Admin_ajax</title>
<polygon fill="none" stroke="black" points="331.586,-268 247.586,-268 247.586,-232 331.586,-232 331.586,-268"/>
<text text-anchor="middle" x="289.586" y="-247.2" font-family="Courier,monospace" font-size="11.00">Admin_ajax</text>
</g>
<!-- \\Admin_Controller -->
<g id="node21" class="node"><title>\\Admin_Controller</title>
<ellipse fill="none" stroke="black" cx="79.293" cy="-277" rx="79.0865" ry="18"/>
<text text-anchor="middle" x="79.293" y="-273.3" font-family="Times New Roman,serif" font-size="14.00" fill="gray">\Admin_Controller</text>
</g>
<!-- \\Admin_ajax&#45;&gt;\\Admin_Controller -->
<g id="edge2" class="edge"><title>\\Admin_ajax&#45;&gt;\\Admin_Controller</title>
<path fill="none" stroke="black" d="M247.434,-255.334C222.082,-258.621 188.754,-262.941 158.533,-266.858"/>
<polygon fill="none" stroke="black" points="157.886,-263.413 148.419,-268.169 158.786,-270.354 157.886,-263.413"/>
</g>
<!-- \\Admin_orders -->
<g id="node3" class="node"><title>\\Admin_orders</title>
<polygon fill="none" stroke="black" points="338.586,-214 240.586,-214 240.586,-178 338.586,-178 338.586,-214"/>
<text text-anchor="middle" x="289.586" y="-193.2" font-family="Courier,monospace" font-size="11.00">Admin_orders</text>
</g>
<!-- \\Admin_orders&#45;&gt;\\Admin_Controller -->
<g id="edge3" class="edge"><title>\\Admin_orders&#45;&gt;\\Admin_Controller</title>
<path fill="none" stroke="black" d="M242.1,-214.077C208.816,-227.02 164.059,-244.425 130.054,-257.649"/>
<polygon fill="none" stroke="black" points="128.371,-254.548 120.32,-261.435 130.908,-261.072 128.371,-254.548"/>
</g>
<!-- \\Content -->
<g id="node4" class="node"><title>\\Content</title>
<polygon fill="none" stroke="black" points="321.586,-160 257.586,-160 257.586,-124 321.586,-124 321.586,-160"/>
<text text-anchor="middle" x="289.586" y="-139.2" font-family="Courier,monospace" font-size="11.00">Content</text>
</g>
<!-- \\Content&#45;&gt;\\Admin_Controller -->
<g id="edge4" class="edge"><title>\\Content&#45;&gt;\\Admin_Controller</title>
<path fill="none" stroke="black" d="M257.575,-152.76C246.257,-157.181 233.552,-162.739 222.586,-169 179.688,-193.492 135.088,-229.315 107.51,-252.888"/>
<polygon fill="none" stroke="black" points="105.145,-250.306 99.8587,-259.488 109.717,-255.606 105.145,-250.306"/>
</g>
<!-- \\Index -->
<g id="node5" class="node"><title>\\Index</title>
<polygon fill="none" stroke="black" points="316.586,-538 262.586,-538 262.586,-502 316.586,-502 316.586,-538"/>
<text text-anchor="middle" x="289.586" y="-517.2" font-family="Courier,monospace" font-size="11.00">Index</text>
</g>
<!-- \\Index&#45;&gt;\\Client_Controller -->
<g id="edge5" class="edge"><title>\\Index&#45;&gt;\\Client_Controller</title>
<path fill="none" stroke="black" d="M262.457,-527.083C249.588,-531.428 234.35,-537.928 222.586,-547 163.418,-592.626 116.487,-668.846 94.2802,-709.14"/>
<polygon fill="none" stroke="black" points="91.1099,-707.644 89.4224,-718.104 97.2643,-710.979 91.1099,-707.644"/>
</g>
<!-- \\Mailouts_module -->
<g id="node6" class="node"><title>\\Mailouts_module</title>
<polygon fill="none" stroke="black" points="348.586,-376 230.586,-376 230.586,-340 348.586,-340 348.586,-376"/>
<text text-anchor="middle" x="289.586" y="-355.2" font-family="Courier,monospace" font-size="11.00">Mailouts_module</text>
</g>
<!-- \\Mailouts_module&#45;&gt;\\Admin_Controller -->
<g id="edge6" class="edge"><title>\\Mailouts_module&#45;&gt;\\Admin_Controller</title>
<path fill="none" stroke="black" d="M242.1,-339.923C208.816,-326.98 164.059,-309.575 130.054,-296.351"/>
<polygon fill="none" stroke="black" points="130.908,-292.928 120.32,-292.565 128.371,-299.452 130.908,-292.928"/>
</g>
<!-- \\Menu_module -->
<g id="node7" class="node"><title>\\Menu_module</title>
<polygon fill="none" stroke="black" points="335.086,-322 244.086,-322 244.086,-286 335.086,-286 335.086,-322"/>
<text text-anchor="middle" x="289.586" y="-301.2" font-family="Courier,monospace" font-size="11.00">Menu_module</text>
</g>
<!-- \\Menu_module&#45;&gt;\\Admin_Controller -->
<g id="edge7" class="edge"><title>\\Menu_module&#45;&gt;\\Admin_Controller</title>
<path fill="none" stroke="black" d="M243.902,-298.208C219.094,-294.992 187.517,-290.899 158.734,-287.168"/>
<polygon fill="none" stroke="black" points="159.052,-283.68 148.685,-285.865 158.152,-290.622 159.052,-283.68"/>
</g>
<!-- \\Registration -->
<g id="node8" class="node"><title>\\Registration</title>
<polygon fill="none" stroke="black" points="338.586,-52 240.586,-52 240.586,-16 338.586,-16 338.586,-52"/>
<text text-anchor="middle" x="289.586" y="-31.2" font-family="Courier,monospace" font-size="11.00">Registration</text>
</g>
<!-- \\CI_Controller -->
<g id="node22" class="node"><title>\\CI_Controller</title>
<ellipse fill="none" stroke="black" cx="79.293" cy="-61" rx="63.8893" ry="18"/>
<text text-anchor="middle" x="79.293" y="-57.3" font-family="Times New Roman,serif" font-size="14.00" fill="gray">\CI_Controller</text>
</g>
<!-- \\Registration&#45;&gt;\\CI_Controller -->
<g id="edge8" class="edge"><title>\\Registration&#45;&gt;\\CI_Controller</title>
<path fill="none" stroke="black" d="M240.538,-40.2282C213.012,-43.7962 178.036,-48.3301 147.787,-52.2511"/>
<polygon fill="none" stroke="black" points="147.194,-48.7985 137.727,-53.5551 148.094,-55.7404 147.194,-48.7985"/>
</g>
<!-- \\Users_module -->
<g id="node9" class="node"><title>\\Users_module</title>
<polygon fill="none" stroke="black" points="338.586,-430 240.586,-430 240.586,-394 338.586,-394 338.586,-430"/>
<text text-anchor="middle" x="289.586" y="-409.2" font-family="Courier,monospace" font-size="11.00">Users_module</text>
</g>
<!-- \\Users_module&#45;&gt;\\Admin_Controller -->
<g id="edge9" class="edge"><title>\\Users_module&#45;&gt;\\Admin_Controller</title>
<path fill="none" stroke="black" d="M240.299,-393.97C234.219,-391.201 228.177,-388.192 222.586,-385 179.688,-360.508 135.088,-324.685 107.51,-301.112"/>
<polygon fill="none" stroke="black" points="109.717,-298.394 99.8587,-294.512 105.145,-303.694 109.717,-298.394"/>
</g>
<!-- \\Ajax -->
<g id="node10" class="node"><title>\\Ajax</title>
<polygon fill="none" stroke="black" points="316.586,-106 262.586,-106 262.586,-70 316.586,-70 316.586,-106"/>
<text text-anchor="middle" x="289.586" y="-85.2" font-family="Courier,monospace" font-size="11.00">Ajax</text>
</g>
<!-- \\Ajax&#45;&gt;\\CI_Controller -->
<g id="edge10" class="edge"><title>\\Ajax&#45;&gt;\\CI_Controller</title>
<path fill="none" stroke="black" d="M262.205,-84.5804C233.566,-80.868 186.697,-74.7927 147.707,-69.7386"/>
<polygon fill="none" stroke="black" points="147.829,-66.2251 137.462,-68.4105 146.929,-73.1671 147.829,-66.2251"/>
</g>
<!-- \\Cabinet -->
<g id="node11" class="node"><title>\\Cabinet</title>
<polygon fill="none" stroke="black" points="321.586,-484 257.586,-484 257.586,-448 321.586,-448 321.586,-484"/>
<text text-anchor="middle" x="289.586" y="-463.2" font-family="Courier,monospace" font-size="11.00">Cabinet</text>
</g>
<!-- \\Cabinet&#45;&gt;\\Client_Controller -->
<g id="edge11" class="edge"><title>\\Cabinet&#45;&gt;\\Client_Controller</title>
<path fill="none" stroke="black" d="M257.371,-474.088C245.517,-478.292 232.498,-484.4 222.586,-493 152.286,-554 107.851,-658.666 89.69,-708.313"/>
<polygon fill="none" stroke="black" points="86.3839,-707.164 86.3108,-717.759 92.9749,-709.522 86.3839,-707.164"/>
</g>
<!-- \\Cart -->
<g id="node12" class="node"><title>\\Cart</title>
<polygon fill="none" stroke="black" points="316.586,-1024 262.586,-1024 262.586,-988 316.586,-988 316.586,-1024"/>
<text text-anchor="middle" x="289.586" y="-1003.2" font-family="Courier,monospace" font-size="11.00">Cart</text>
</g>
<!-- \\Cart&#45;&gt;\\Client_Controller -->
<g id="edge12" class="edge"><title>\\Cart&#45;&gt;\\Client_Controller</title>
<path fill="none" stroke="black" d="M262.321,-999.584C249.264,-995.386 233.9,-988.818 222.586,-979 152.286,-918 107.851,-813.334 89.69,-763.687"/>
<polygon fill="none" stroke="black" points="92.9749,-762.478 86.3108,-754.241 86.3839,-764.836 92.9749,-762.478"/>
</g>
<!-- \\Catalog -->
<g id="node13" class="node"><title>\\Catalog</title>
<polygon fill="none" stroke="black" points="321.586,-970 257.586,-970 257.586,-934 321.586,-934 321.586,-970"/>
<text text-anchor="middle" x="289.586" y="-949.2" font-family="Courier,monospace" font-size="11.00">Catalog</text>
</g>
<!-- \\Catalog&#45;&gt;\\Client_Controller -->
<g id="edge13" class="edge"><title>\\Catalog&#45;&gt;\\Client_Controller</title>
<path fill="none" stroke="black" d="M257.531,-943.186C245.833,-938.906 232.88,-932.938 222.586,-925 163.418,-879.374 116.487,-803.154 94.2802,-762.86"/>
<polygon fill="none" stroke="black" points="97.2643,-761.021 89.4224,-753.896 91.1099,-764.356 97.2643,-761.021"/>
</g>
<!-- \\Contacts -->
<g id="node14" class="node"><title>\\Contacts</title>
<polygon fill="none" stroke="black" points="325.086,-916 254.086,-916 254.086,-880 325.086,-880 325.086,-916"/>
<text text-anchor="middle" x="289.586" y="-895.2" font-family="Courier,monospace" font-size="11.00">Contacts</text>
</g>
<!-- \\Contacts&#45;&gt;\\Client_Controller -->
<g id="edge14" class="edge"><title>\\Contacts&#45;&gt;\\Client_Controller</title>
<path fill="none" stroke="black" d="M253.809,-886.566C243.366,-882.407 232.152,-877.182 222.586,-871 174.483,-839.915 128.168,-791.405 102.055,-761.783"/>
<polygon fill="none" stroke="black" points="104.447,-759.201 95.2403,-753.959 99.1689,-763.799 104.447,-759.201"/>
</g>
<!-- \\Order -->
<g id="node15" class="node"><title>\\Order</title>
<polygon fill="none" stroke="black" points="316.586,-862 262.586,-862 262.586,-826 316.586,-826 316.586,-862"/>
<text text-anchor="middle" x="289.586" y="-841.2" font-family="Courier,monospace" font-size="11.00">Order</text>
</g>
<!-- \\Order&#45;&gt;\\Client_Controller -->
<g id="edge15" class="edge"><title>\\Order&#45;&gt;\\Client_Controller</title>
<path fill="none" stroke="black" d="M262.545,-834.245C250.261,-829.417 235.499,-823.284 222.586,-817 185.338,-798.873 144.387,-775.136 116.019,-758.05"/>
<polygon fill="none" stroke="black" points="117.639,-754.939 107.272,-752.752 114.012,-760.926 117.639,-754.939"/>
</g>
<!-- \\Pages -->
<g id="node16" class="node"><title>\\Pages</title>
<polygon fill="none" stroke="black" points="316.586,-808 262.586,-808 262.586,-772 316.586,-772 316.586,-808"/>
<text text-anchor="middle" x="289.586" y="-787.2" font-family="Courier,monospace" font-size="11.00">Pages</text>
</g>
<!-- \\Pages&#45;&gt;\\Client_Controller -->
<g id="edge16" class="edge"><title>\\Pages&#45;&gt;\\Client_Controller</title>
<path fill="none" stroke="black" d="M262.205,-783.161C231.866,-775.295 181.07,-762.126 140.854,-751.7"/>
<polygon fill="none" stroke="black" points="141.697,-748.303 131.139,-749.182 139.941,-755.079 141.697,-748.303"/>
</g>
<!-- \\Search -->
<g id="node17" class="node"><title>\\Search</title>
<polygon fill="none" stroke="black" points="318.086,-754 261.086,-754 261.086,-718 318.086,-718 318.086,-754"/>
<text text-anchor="middle" x="289.586" y="-733.2" font-family="Courier,monospace" font-size="11.00">Search</text>
</g>
<!-- \\Search&#45;&gt;\\Client_Controller -->
<g id="edge17" class="edge"><title>\\Search&#45;&gt;\\Client_Controller</title>
<path fill="none" stroke="black" d="M260.926,-736C236.35,-736 199.11,-736 164.816,-736"/>
<polygon fill="none" stroke="black" points="164.761,-732.5 154.761,-736 164.761,-739.5 164.761,-732.5"/>
</g>
<!-- \\Sitemap -->
<g id="node18" class="node"><title>\\Sitemap</title>
<polygon fill="none" stroke="black" points="321.586,-700 257.586,-700 257.586,-664 321.586,-664 321.586,-700"/>
<text text-anchor="middle" x="289.586" y="-679.2" font-family="Courier,monospace" font-size="11.00">Sitemap</text>
</g>
<!-- \\Sitemap&#45;&gt;\\Client_Controller -->
<g id="edge18" class="edge"><title>\\Sitemap&#45;&gt;\\Client_Controller</title>
<path fill="none" stroke="black" d="M257.402,-690.084C226.773,-698.025 179.225,-710.352 141.104,-720.235"/>
<polygon fill="none" stroke="black" points="139.93,-716.923 131.128,-722.821 141.687,-723.699 139.93,-716.923"/>
</g>
<!-- \\Wishlist -->
<g id="node19" class="node"><title>\\Wishlist</title>
<polygon fill="none" stroke="black" points="325.086,-646 254.086,-646 254.086,-610 325.086,-610 325.086,-646"/>
<text text-anchor="middle" x="289.586" y="-625.2" font-family="Courier,monospace" font-size="11.00">Wishlist</text>
</g>
<!-- \\Wishlist&#45;&gt;\\Client_Controller -->
<g id="edge19" class="edge"><title>\\Wishlist&#45;&gt;\\Client_Controller</title>
<path fill="none" stroke="black" d="M253.96,-641.185C243.736,-645.34 232.605,-650.124 222.586,-655 185.338,-673.127 144.387,-696.864 116.019,-713.95"/>
<polygon fill="none" stroke="black" points="114.012,-711.074 107.272,-719.248 117.639,-717.061 114.012,-711.074"/>
</g>
</g>
</svg>
